<svg xmlns="http://www.w3.org/2000/svg" version="1.1" width="2048" height="2048"><path d="M0 0 C0.87269531 0.51884766 1.74539063 1.03769531 2.64453125 1.57226562 C7.95870118 4.73613236 13.26018891 7.92052382 18.5546875 11.1171875 C24.20527951 14.52694101 29.87656101 17.89959647 35.5625 21.25 C45.88115574 27.33441276 56.18340264 33.44614073 66.48168945 39.56494141 C67.86539251 40.38705206 69.24910021 41.20915489 70.6328125 42.03125 C71.32334213 42.44152435 72.01387177 42.85179871 72.72532654 43.27450562 C77.54099617 46.13506828 82.3597297 48.99042012 87.1796875 51.84375 C89.87005495 53.43705592 92.56014049 55.03083672 95.25 56.625 C95.91354492 57.01822449 96.57708984 57.41144897 97.26074219 57.81658936 C107.25363464 63.74180752 117.19090226 69.75330337 127.10632324 75.80703735 C136.58280904 81.58741135 146.15810765 87.17726025 155.78808594 92.69726562 C162.90130985 96.77745075 169.96083753 100.93351881 176.98046875 105.17236328 C182.096602 108.26048888 187.22537852 111.32597829 192.3671875 114.37109375 C193.02274124 114.75936844 193.67829498 115.14764313 194.35371399 115.54768372 C195.71212186 116.35215918 197.07054598 117.1566072 198.4289856 117.96102905 C209.55774257 124.55156608 220.64847059 131.19774302 231.6875 137.9375 C239.56056631 142.74407194 247.46754224 147.46436384 255.5 152 C314.49777043 185.46116152 314.49777043 185.46116152 323.25 215.25 C325.28949653 222.63899564 326.1477343 229.41588662 326.13422108 237.04330063 C326.13657331 237.94811088 326.13892554 238.85292113 326.14134905 239.78514987 C326.1480236 242.8271359 326.14758129 245.86907905 326.14717102 248.91107178 C326.15047062 251.1101905 326.15419639 253.30930861 326.1583125 255.50842595 C326.16832993 261.5599617 326.17204889 267.61148752 326.17470181 273.66303039 C326.17820488 279.51705837 326.18635235 285.37107878 326.19424575 291.22510222 C326.21507936 306.9102965 326.22555898 322.59549265 326.23437535 338.28069755 C326.23858417 345.70465892 326.2438059 353.12861949 326.24905988 360.55258019 C326.26695082 385.9771127 326.28194501 411.40164545 326.28938007 436.82618332 C326.28985483 438.42207542 326.29033072 440.01796751 326.29080774 441.61385961 C326.2911623 442.80096399 326.2911623 442.80096399 326.29152403 444.01205029 C326.2927252 448.02154264 326.29394066 452.03103499 326.29516602 456.04052734 C326.29540617 456.8362172 326.29564632 457.63190706 326.29589374 458.45170874 C326.30378194 484.23428451 326.3272035 510.01681422 326.35972196 535.79936988 C326.39405704 563.07218094 326.4137347 590.34496506 326.41702431 617.61779809 C326.41744183 620.61468777 326.41792139 623.61157744 326.41844749 626.6084671 C326.41857069 627.34635999 326.41869388 628.08425288 326.4188208 628.84450617 C326.42114845 640.6960182 326.4367842 652.54747656 326.45728934 664.3989695 C326.47759397 676.32429392 326.48300281 688.24955419 326.47351871 700.17489269 C326.46897971 706.62972946 326.47083728 713.08439268 326.49028015 719.53920555 C326.50795288 725.4576593 326.50688051 731.37581343 326.49138286 737.29427055 C326.48901304 739.42629872 326.49329751 741.55834786 326.50521151 743.69034407 C326.62919739 767.35880913 323.107703 788.27652678 306 806 C297.84123233 813.77137295 288.76297429 819.45724887 279 825 C276.90981464 826.1973205 274.82000163 827.39529116 272.73046875 828.59375 C268.54866099 830.98918315 264.36435012 833.38008575 260.17666626 835.76522827 C252.76933867 839.98416267 245.38008314 844.23353962 238 848.5 C229.01464936 853.69250839 220.01346819 858.85652438 211 864 C201.61449866 869.35683921 192.23788271 874.72871169 182.875 880.125 C181.82699219 880.72828125 180.77898438 881.3315625 179.69921875 881.953125 C174.07056409 885.20070583 168.48787321 888.50368438 162.96533203 891.92919922 C161 893 161 893 159 893 C159 893.66 159 894.32 159 895 C159.77085937 895.20367188 160.54171875 895.40734375 161.3359375 895.6171875 C166.4536254 897.54859637 170.93804292 900.32522835 175.625 903.125 C177.78837397 904.40220864 179.95246545 905.67820254 182.1171875 906.953125 C183.81053223 907.95182617 183.81053223 907.95182617 185.53808594 908.97070312 C191.24504457 912.32480343 196.99875438 915.59764833 202.75 918.875 C203.92760296 919.54682006 205.1051744 920.21869537 206.28271484 920.890625 C209.8544702 922.92826487 213.4271485 924.9642829 217 927 C221.75082192 929.70689377 226.50111677 932.41470621 231.25 935.125 C231.83125641 935.45671204 232.41251282 935.78842407 233.01138306 936.13018799 C242.16947315 941.35896509 251.29322303 946.64465945 260.38867188 951.98168945 C265.14904973 954.77124847 269.92219492 957.53022446 274.73828125 960.22265625 C296.49825724 972.39735996 314.63904903 985.4180528 323 1010 C325.98879617 1021.20966044 326.41200399 1031.92712056 326.32470703 1043.46081543 C326.3222639 1045.28368328 326.32118213 1047.10655337 326.32133007 1048.92942286 C326.31872817 1052.86604577 326.3065981 1056.8024812 326.28695107 1060.73905563 C326.25497952 1067.1459486 326.24393711 1073.55278653 326.2351532 1079.95974731 C326.22047272 1089.25926663 326.19606884 1098.55871808 326.16616821 1107.85820007 C326.11998106 1122.55508208 326.10731484 1137.25190694 326.1003418 1151.94885254 C326.09757313 1156.98217017 326.09463888 1162.01548771 326.09169006 1167.04880524 C326.09096857 1168.306365 326.09024707 1169.56392477 326.08950371 1170.85959241 C326.08097591 1185.15151765 326.06684399 1199.44343465 326.04931641 1213.73535156 C326.0477251 1215.04090337 326.0461338 1216.34645517 326.04449427 1217.69156915 C326.01766532 1238.8832438 325.96075197 1260.07475621 325.89553118 1281.26634258 C325.82952233 1303.03658045 325.80546152 1324.8066008 325.81800461 1346.57693529 C325.8242118 1360.00062895 325.79609743 1373.42337521 325.72407478 1386.84688109 C325.67769216 1396.03569973 325.67113983 1405.22399681 325.69619423 1414.41289645 C325.70940004 1419.71662022 325.70449451 1425.01874172 325.65173912 1430.32225418 C325.6038177 1435.17597761 325.60639942 1440.02693972 325.64940619 1444.88068491 C325.65598667 1446.63744886 325.64388471 1448.39440117 325.61136651 1450.15087646 C325.16616806 1459.57832247 325.16616806 1459.57832247 329.41180992 1467.52773762 C332.20975497 1469.32148871 334.96205481 1470.66775652 338 1472 C342.62514995 1475.26228386 346.7915445 1479.21867133 351 1483 C351.79277344 1483.70769531 352.58554688 1484.41539063 353.40234375 1485.14453125 C376.43122181 1506.92410309 391.68783451 1540.07144641 393.1262207 1571.78271484 C393.47915267 1585.79467412 393.23353635 1599.32713085 390 1613 C389.76651855 1614.02383789 389.76651855 1614.02383789 389.52832031 1615.06835938 C384.03820878 1638.32188567 371.80992111 1658.38221796 356 1676 C354.94039062 1677.18722656 354.94039062 1677.18722656 353.859375 1678.3984375 C331.68918615 1701.83791197 298.50456055 1716.60069188 266.33862305 1718.1262207 C252.6300196 1718.50279785 239.40779616 1717.98216638 226 1715 C225.29891113 1714.8443457 224.59782227 1714.68869141 223.87548828 1714.52832031 C189.08596855 1706.38557358 159.02582939 1683.05631329 140.14477539 1653.09204102 C122.21898372 1623.55808431 115.82963605 1586.18096864 123.40917969 1552.37011719 C132.05936501 1517.66929111 152.50378604 1486.28795838 183 1467 C198.27528902 1458 198.27528902 1458 202 1458 C202 1329.96 202 1201.92 202 1070 C200.35 1069.34 198.7 1068.68 197 1068 C195.24084607 1067.05972151 193.49957158 1066.08554109 191.7734375 1065.0859375 C190.75572266 1064.498125 189.73800781 1063.9103125 188.68945312 1063.3046875 C187.59568359 1062.66789062 186.50191406 1062.03109375 185.375 1061.375 C184.21557616 1060.70298459 183.05606934 1060.03111234 181.89648438 1059.359375 C172.59955913 1053.96519267 163.35554489 1048.48247491 154.11743164 1042.98828125 C145.3069877 1037.75523446 136.44590339 1032.61494763 127.56298828 1027.50610352 C117.33888664 1021.62581237 107.15082226 1015.68491014 96.96777344 1009.73388672 C91.98009043 1006.8198916 86.98991295 1003.91017432 82 1001 C79.9999882 999.83335357 77.99998819 998.66668691 76 997.5 C75.01 996.9225 74.02 996.345 73 995.75 C68.5 993.125 68.5 993.125 64 990.5 C63.00983887 989.92241943 62.01967773 989.34483887 60.99951172 988.74975586 C59.00109209 987.58398396 57.00271963 986.4181312 55.00439453 985.25219727 C49.98060014 982.32117301 44.95597368 979.39159316 39.9296875 976.46484375 C35.92479925 974.13279378 31.92240815 971.79654357 27.921875 969.45703125 C23.93990618 967.12851379 19.94934219 964.81568669 15.953125 962.51171875 C-4.48964455 950.67482936 -19.4880222 938.6981535 -27.09765625 915.6796875 C-31.49110097 899.04590145 -29.14026679 883.33147712 -21.015625 868.328125 C-17.94065826 863.25085434 -14.28790811 859.0818825 -10 855 C-9.38294189 854.4004248 -8.76588379 853.80084961 -8.13012695 853.18310547 C-2.25395598 847.68260131 4.04419199 843.76614581 11.0625 839.875 C12.79548531 838.89495761 14.52846002 837.91489555 16.26062012 836.93339539 C18.02612039 835.93428606 19.7939849 834.93945413 21.56201172 833.94482422 C26.77958302 830.99331357 31.95275308 827.96751511 37.125 824.9375 C39.10667047 823.77977611 41.0884413 822.62222398 43.0703125 821.46484375 C44.04774414 820.89362793 45.02517578 820.32241211 46.03222656 819.73388672 C51.01990959 816.81989158 56.01010184 813.91019972 61 811 C63.00651634 809.82943724 65.01302677 808.65886434 67.01953125 807.48828125 C70.95393232 805.19316064 74.88885909 802.89894529 78.82421875 800.60546875 C87.23605076 795.70219879 95.64684944 790.79732524 104.04296875 785.8671875 C117.01077172 778.25331442 129.99732504 770.67631275 143.03027344 763.17431641 C149.56431119 759.41134773 156.08120913 755.62197552 162.57299805 751.78662109 C166.73689246 749.32755203 170.90999107 746.8849925 175.08984375 744.453125 C176.15960449 743.83058838 177.22936523 743.20805176 178.33154297 742.56665039 C180.43022019 741.34604297 182.52947178 740.12642236 184.62939453 738.90795898 C186.08321533 738.06213257 186.08321533 738.06213257 187.56640625 737.19921875 C188.42177979 736.70252686 189.27715332 736.20583496 190.15844727 735.6940918 C191.09615967 735.1350415 192.03387207 734.57599121 193 734 C193.65747191 733.79536725 194.31494383 733.5907345 194.99233913 733.37990075 C197.74704949 732.27734261 199.12108957 731.32602371 201 729 C202.27951145 722.97473074 202.06898749 716.95742464 202 710.82145691 C202.00761694 708.90734244 202.01874423 706.99323925 202.03308773 705.07916337 C202.06236788 699.81112334 202.04169962 694.54426798 202.01306796 689.27626765 C201.99089281 683.59866678 202.01476248 677.92124075 202.03309631 672.24365234 C202.05854105 662.40419418 202.05468395 652.56509533 202.03103638 642.72563744 C201.99688814 628.49943337 202.00675792 614.27352912 202.02743971 600.04731158 C202.05979429 576.96743572 202.05652018 553.88773629 202.03076172 530.80786133 C202.00582161 508.38530669 201.99765434 485.96284852 202.01220703 463.5402832 C202.01264888 462.84919295 202.01309072 462.15810269 202.01354596 461.44607031 C202.01800167 454.50589401 202.02279851 447.56571799 202.02784529 440.62554211 C202.07014156 382.4169882 202.0548747 324.20854087 202 266 C201.05242325 265.69183853 200.1048465 265.38367706 199.1285553 265.06617737 C196.47723447 264.16263628 194.42081026 263.23617081 192.05859375 261.77734375 C191.32568115 261.33036133 190.59276855 260.88337891 189.83764648 260.42285156 C189.04559814 259.93268555 188.2535498 259.44251953 187.4375 258.9375 C185.64676495 257.84612618 183.85503754 256.75637952 182.0625 255.66796875 C181.09183594 255.07806152 180.12117188 254.4881543 179.12109375 253.88037109 C173.42543394 250.44889645 167.67900054 247.10394869 161.9375 243.75 C152.29562894 238.11155396 142.6688548 232.44875514 133.0625 226.75 C131.38281128 225.75359497 131.38281128 225.75359497 129.66918945 224.73706055 C127.47845756 223.43727234 125.28778218 222.13738888 123.09716797 220.83740234 C109.40713035 212.71575461 95.68981071 204.64143675 81.95318604 196.59890747 C72.00528328 190.7736104 62.08190207 184.908321 52.16967773 179.02246094 C43.9229726 174.12937982 35.65275456 169.27778778 27.375 164.4375 C17.25466607 158.51964486 7.18299138 152.52661091 -2.859375 146.47705078 C-13.0441992 140.35137184 -23.28082092 134.30811017 -33.59863281 128.40869141 C-35.09665091 127.52992317 -36.57494561 126.61545123 -38.01855469 125.64990234 C-40.80334604 123.82661768 -42.40993834 122.9224919 -45.765625 123.36328125 C-50.54559678 125.78213171 -55.15029872 128.44319055 -59.75 131.1875 C-61.91105633 132.46292098 -64.072529 133.73763673 -66.234375 135.01171875 C-67.90790039 136.00051025 -67.90790039 136.00051025 -69.61523438 137.00927734 C-75.05592025 140.20917294 -80.52821474 143.35368231 -86 146.5 C-94.34837888 151.30782718 -102.68248723 156.13897341 -111 161 C-120.4099033 166.49945536 -129.84470563 171.95449196 -139.2890625 177.39453125 C-146.5395149 181.57349128 -153.77488269 185.77740506 -161 190 C-170.4099033 195.49945536 -179.84470563 200.95449196 -189.2890625 206.39453125 C-196.5395149 210.57349128 -203.77488269 214.77740506 -211 219 C-220.4099033 224.49945536 -229.84470563 229.95449196 -239.2890625 235.39453125 C-246.5395149 239.57349128 -253.77488269 243.77740506 -261 248 C-270.4099033 253.49945536 -279.84470563 258.95449196 -289.2890625 264.39453125 C-296.5395149 268.57349128 -303.77488269 272.77740506 -311 277 C-320.4099033 282.49945536 -329.84470563 287.95449196 -339.2890625 293.39453125 C-346.5395149 297.57349128 -353.77488269 301.77740506 -361 306 C-370.40621547 311.49730007 -379.83709094 316.95060135 -389.27807617 322.38793945 C-397.5185097 327.13698762 -405.73928465 331.91887333 -413.94335938 336.73046875 C-423.91773237 342.5677024 -433.96352198 348.26486971 -444 354 C-444 394.92 -444 435.84 -444 478 C-436.08 473.38 -428.16 468.76 -420 464 C-415.71075142 461.51637912 -411.42068107 459.03487688 -407.125 456.5625 C-404.94009462 455.30340198 -402.75519908 454.04428689 -400.5703125 452.78515625 C-399.48524414 452.16012207 -398.40017578 451.53508789 -397.28222656 450.89111328 C-391.85340058 447.76319852 -386.42680719 444.63141552 -381 441.5 C-378.83334417 440.24998121 -376.6666775 438.99998122 -374.5 437.75 C-373.4275 437.13125 -372.355 436.5125 -371.25 435.875 C-290 389 -208.75 342.125 -127.5 295.25 C-126.4265332 294.63060547 -125.35306641 294.01121094 -124.24707031 293.37304688 C-122.09047294 292.12903071 -119.93357406 290.88553707 -117.77636719 289.64257812 C-112.20300839 286.430355 -106.63585642 283.20793178 -101.078125 279.96875 C-56.95017276 254.28588109 -56.95017276 254.28588109 -30 260 C-12.82973584 264.99180757 0.79948581 275.20043571 9.43847656 290.87915039 C14.8388771 301.14920303 16.15006739 310.49339257 16.14044189 321.97799683 C16.14489858 323.64096776 16.14489858 323.64096776 16.1494453 325.33753407 C16.15812013 329.05429468 16.15963955 332.77102304 16.16113281 336.48779297 C16.16576197 339.1523402 16.17076643 341.81688453 16.17617798 344.48143005 C16.18974167 351.72365196 16.19578353 358.96586831 16.20018864 366.2081008 C16.20295553 370.7360467 16.2071938 375.26399049 16.21169281 379.79193497 C16.22388508 392.34399977 16.23418307 404.89606287 16.2375679 417.44813347 C16.23778747 418.25105562 16.23800703 419.05397777 16.23823325 419.8812309 C16.23845153 420.68601575 16.23866981 421.4908006 16.2388947 422.31997287 C16.23933816 423.95061994 16.23978472 425.581267 16.24023438 427.21191406 C16.2404558 428.02076192 16.24067723 428.82960978 16.24090537 429.66296817 C16.24484778 442.74975282 16.26228492 455.8364816 16.2855939 468.9232447 C16.30936645 482.37970179 16.32177251 495.83613092 16.32293582 509.29260933 C16.3238495 516.83951176 16.32952364 524.38634145 16.34775543 531.93322372 C16.36323663 538.36397922 16.36823017 544.79463953 16.36001733 551.22541015 C16.35613835 554.50034667 16.35857113 557.77505405 16.37107468 561.04997444 C16.46334133 586.7363617 14.37037083 610.66117812 -4.5 630.0625 C-17.11286018 642.41623216 -33.28392752 650.29408831 -48.5267334 658.90113831 C-54.7483524 662.41652959 -60.93862326 665.98549378 -67.125 669.5625 C-68.19032959 670.17770508 -69.25565918 670.79291016 -70.35327148 671.42675781 C-73.56919463 673.28390534 -76.78466355 675.14183691 -80 677 C-93.94844368 685.06089304 -107.91003888 693.09709426 -121.90472412 701.07736206 C-129.96263212 705.67394223 -137.99417786 710.3132416 -146 715 C-154.59522672 720.0318069 -163.2231213 725.00389072 -171.875 729.9375 C-180.97080191 735.12442543 -190.05689514 740.32720641 -199.125 745.5625 C-200.70667969 746.47491455 -200.70667969 746.47491455 -202.3203125 747.40576172 C-207.29259921 750.27561608 -212.26194765 753.15034631 -217.2237854 756.03822327 C-218.97518355 757.05715259 -220.72744519 758.07458068 -222.47998047 759.09155273 C-224.66303561 760.35890525 -226.84448817 761.62902445 -229.02392578 762.90258789 C-241.71364548 770.26148044 -254.08997557 777.06988505 -269 778 C-270.19302734 778.07927734 -270.19302734 778.07927734 -271.41015625 778.16015625 C-287.81230891 778.715752 -303.22625481 773.73925471 -315.4375 762.6875 C-327.34509245 751.32609185 -333.93170081 737.50140716 -335 721 C-335.14607233 703.89127864 -330.71232624 687.95612083 -318.875 675.25 C-313.47719235 670.21920747 -307.37801081 666.63942205 -301 663 C-299.11021824 661.90964904 -297.22093876 660.8184273 -295.33203125 659.7265625 C-292.05136769 657.83194819 -288.7695648 655.9394281 -285.48461914 654.05224609 C-277.45023744 649.43348254 -269.46390403 644.73960691 -261.5 640 C-251.5650629 634.0904933 -241.58348631 628.26920738 -231.56298828 622.50610352 C-221.33888664 616.62581237 -211.15082226 610.68491014 -200.96777344 604.73388672 C-195.98009043 601.8198916 -190.98991295 598.91017432 -186 596 C-183.9999882 594.83335357 -181.99998819 593.66668691 -180 592.5 C-168 585.5 -168 585.5 -164.99902344 583.74951172 C-163.00218415 582.58463462 -161.00543911 581.41959596 -159.00878906 580.25439453 C-153.9611967 577.30900499 -148.9119177 574.36657819 -143.859375 571.4296875 C-141.82281668 570.24496353 -139.78635747 569.06006917 -137.75 567.875 C-136.76563965 567.30249512 -135.7812793 566.72999023 -134.76708984 566.14013672 C-129.86180333 563.27987106 -124.97525213 560.39297688 -120.1171875 557.453125 C-119.19067383 556.89254395 -118.26416016 556.33196289 -117.30957031 555.75439453 C-115.55896431 554.69186775 -113.81078969 553.62532153 -112.06542969 552.55419922 C-111.29360352 552.0851416 -110.52177734 551.61608398 -109.7265625 551.1328125 C-109.05189941 550.71918457 -108.37723633 550.30555664 -107.68212891 549.87939453 C-106 549 -106 549 -104 549 C-104.495 487.62 -104.495 487.62 -105 425 C-112.92 429.62 -120.84 434.24 -129 439 C-133.62060873 441.65434142 -138.24282736 444.30369646 -142.875 446.9375 C-145.24527571 448.28821444 -147.61489749 449.6400734 -149.984375 450.9921875 C-150.57046539 451.32656326 -151.15655579 451.66093903 -151.76040649 452.00544739 C-161.12116231 457.3489471 -170.44973176 462.7484692 -179.78222656 468.14111328 C-185.18670645 471.26324605 -190.59347412 474.38141204 -196 477.5 C-198.1666775 478.74998122 -200.33334417 479.99998121 -202.5 481.25 C-276.16666667 523.75 -349.83333333 566.25 -423.5 608.75 C-424.57362793 609.3694751 -425.64725586 609.9889502 -426.75341797 610.62719727 C-428.90843107 611.87032446 -431.06370233 613.11300425 -433.21923828 614.35522461 C-438.22861593 617.24280063 -443.23556162 620.13430985 -448.23284912 623.04275513 C-449.98270181 624.06088711 -451.73340943 625.07753333 -453.484375 626.09375 C-455.66576071 627.36036106 -457.84558025 628.6296753 -460.0234375 629.90234375 C-479.5513482 641.22651877 -497.04469575 648.40439564 -520 643 C-527.74828635 640.50478914 -534.50820218 636.88142937 -541 632 C-541.60328125 631.56171875 -542.2065625 631.1234375 -542.828125 630.671875 C-555.07684213 621.07152914 -562.05534237 605.92958744 -565 591 C-565.38098913 587.04600713 -565.41083379 583.13231996 -565.38768005 579.16207886 C-565.39306559 578.03338194 -565.39845113 576.90468502 -565.40399987 575.74178517 C-565.41820638 571.99294481 -565.41119356 568.24446122 -565.40405273 564.49560547 C-565.40976025 561.79400024 -565.41662643 559.09241985 -565.42485046 556.39082336 C-565.44198164 549.83311698 -565.44289002 543.27550667 -565.43763756 536.71778373 C-565.43358256 531.38116284 -565.43505515 526.04457016 -565.44038582 520.70795059 C-565.44113424 519.94599842 -565.44188266 519.18404625 -565.44265376 518.39900462 C-565.44418539 516.85063718 -565.44572374 515.30226975 -565.44726873 513.75390233 C-565.46097423 499.25621503 -565.45557072 484.75858179 -565.44408352 470.26089574 C-565.43416197 457.033552 -565.44707659 443.80634835 -565.47101771 430.57902621 C-565.49547647 416.96189544 -565.50499945 403.34482973 -565.49836498 389.72767746 C-565.49488663 382.09695305 -565.49701217 374.46633618 -565.51461601 366.83562851 C-565.52942346 360.33696827 -565.52986352 353.83849123 -565.5125451 347.33983426 C-565.5041004 344.03209655 -565.50393703 340.72494975 -565.51719666 337.41718864 C-565.61052609 312.19350438 -563.11239939 289.80252568 -545.1015625 270.84375 C-537.76458475 263.89485842 -529.7752129 258.3963787 -521 253.4375 C-519.96746094 252.84453125 -518.93492187 252.2515625 -517.87109375 251.640625 C-515.68945658 250.38834951 -513.50582633 249.13954044 -511.3203125 247.89404297 C-506.95594426 245.40442761 -502.60490517 242.89203552 -498.25390625 240.37915039 C-496.07485006 239.12073236 -493.89515638 237.86341761 -491.71484375 236.60717773 C-484.46264586 232.42841204 -477.22638092 228.22323284 -470 224 C-458.45277514 217.25286886 -446.87097881 210.5666063 -435.28222656 203.89111328 C-429.85340062 200.76319854 -424.42677993 197.63146269 -419 194.5 C-412.47766725 190.73636081 -405.95486238 186.97355378 -399.4296875 183.21484375 C-388.93767906 177.16944841 -378.45518324 171.10889781 -368 165 C-356.45270484 158.25298806 -344.87097973 151.56660682 -333.28222656 144.89111328 C-327.85340062 141.76319854 -322.42677993 138.63146269 -317 135.5 C-310.47766725 131.73636081 -303.95486238 127.97355378 -297.4296875 124.21484375 C-286.93767906 118.16944841 -276.45518324 112.10889781 -266 106 C-254.45270484 99.25298806 -242.87097973 92.56660682 -231.28222656 85.89111328 C-225.85340062 82.76319854 -220.42677993 79.63146269 -215 76.5 C-208.47766725 72.73636081 -201.95486238 68.97355378 -195.4296875 65.21484375 C-184.93767906 59.16944841 -174.45518324 53.10889781 -164 47 C-150.26944812 38.97732489 -136.48922034 31.04141741 -122.70898438 23.10449219 C-119.43068947 21.21601512 -116.15284229 19.32676252 -112.875 17.4375 C-111.80838135 16.82350342 -110.7417627 16.20950684 -109.64282227 15.5769043 C-104.21903133 12.45072291 -98.80843376 9.30443923 -93.41796875 6.12109375 C-92.3501416 5.49211182 -91.28231445 4.86312988 -90.18212891 4.21508789 C-88.17770918 3.03279712 -86.17585107 1.8461467 -84.17724609 0.65405273 C-55.80709318 -16.06416249 -28.33338313 -16.95271996 0 0 Z M210 1538 C209.360625 1538.61488281 208.72125 1539.22976563 208.0625 1539.86328125 C196.36037807 1552.06169853 192.50382835 1568.22214531 192.64819336 1584.63720703 C193.07324542 1600.18911188 198.75711858 1613.31000068 209 1625 C209.53238281 1625.61488281 210.06476562 1626.22976563 210.61328125 1626.86328125 C220.97088588 1638.01192012 236.53802178 1645.60367021 251.76171875 1646.3359375 C271.08565207 1646.69130679 287.55127753 1641.81464051 301.88964844 1628.25512695 C313.6637688 1616.60554816 321.13461923 1601.3621483 321.32958984 1584.70703125 C321.32113037 1583.45986328 321.32113037 1583.45986328 321.3125 1582.1875 C321.30404053 1580.87265625 321.30404053 1580.87265625 321.29541016 1579.53125 C321.00425061 1563.9181796 315.28897924 1550.71800413 305 1539 C304.41734375 1538.32324219 303.8346875 1537.64648438 303.234375 1536.94921875 C291.84709524 1524.62894758 276.41911209 1518.07645437 259.84448242 1517.41064453 C239.63637547 1517.15741446 224.43332754 1523.83485929 210 1538 Z " fill="#7AB319" transform="translate(1284,156)"></path><path d="M0 0 C0.51014648 0.42506836 1.02029297 0.85013672 1.54589844 1.28808594 C26.83953184 22.60402683 42.19417161 53.57859054 47 86 C47.19722656 87.31484375 47.19722656 87.31484375 47.3984375 88.65625 C50.87183064 116.8188971 44.67131489 145.3466976 31 170 C30.4225 171.07894531 29.845 172.15789062 29.25 173.26953125 C25.22949141 180.51947615 20.4331517 186.75647991 15 193 C13.95199219 194.24910156 13.95199219 194.24910156 12.8828125 195.5234375 C-7.87717978 219.6293626 -39.27581745 236.09353138 -70.8984375 239.75390625 C-91.59198851 241.23201704 -110.9564313 240.14778845 -130.6875 233.75 C-131.58275391 233.46084717 -132.47800781 233.17169434 -133.40039062 232.8737793 C-137.5448017 231.45858661 -141.22777479 230.00559743 -144.85546875 227.53125 C-148.37773631 225.18113578 -151.65654376 223.03191518 -156 223 C-163.33885222 225.22880501 -169.72431552 229.840412 -176.04785156 234.05712891 C-180.57159072 237.03429697 -185.2553558 239.71953115 -189.9375 242.4375 C-191.76288617 243.51886511 -193.5870962 244.60221792 -195.41015625 245.6875 C-201.2146864 249.13358805 -207.04228964 252.53937797 -212.875 255.9375 C-214.37148071 256.80942993 -214.37148071 256.80942993 -215.89819336 257.69897461 C-217.92129018 258.87744439 -219.94448375 260.05574809 -221.96777344 261.23388672 C-226.9800581 264.15328022 -231.98992842 267.07681074 -237 270 C-243.22202703 273.62998655 -249.44445854 277.25927554 -255.66796875 280.88671875 C-256.75916016 281.52287109 -257.85035156 282.15902344 -258.97460938 282.81445312 C-261.06560575 284.03345952 -263.15674416 285.25222235 -265.24804688 286.47070312 C-266.19099609 287.02048828 -267.13394531 287.57027344 -268.10546875 288.13671875 C-268.93199951 288.61842529 -269.75853027 289.10013184 -270.61010742 289.59643555 C-272.31577886 290.59816249 -274.00445857 291.62905578 -275.6809082 292.67895508 C-278 294 -278 294 -280 294 C-280 698.58 -280 1103.16 -280 1520 C-262.18 1511.09 -244.36 1502.18 -226 1493 C-218.41 1489.37 -210.82 1485.74 -203 1482 C-197.97214807 1479.51379708 -192.94752354 1477.02645382 -187.93710327 1474.50613403 C-185.70366828 1473.38275976 -183.46880007 1472.26227684 -181.23364258 1471.14233398 C-176.48792324 1468.76388807 -171.74382076 1466.3822299 -167 1464 C-131.40260556 1446.12386565 -131.40260556 1446.12386565 -117.375 1439.375 C-116.43293701 1438.91939697 -115.49087402 1438.46379395 -114.52026367 1437.99438477 C-113.67568604 1437.59147217 -112.8311084 1437.18855957 -111.9609375 1436.7734375 C-110.87498291 1436.25402588 -110.87498291 1436.25402588 -109.76708984 1435.72412109 C-108 1435 -108 1435 -106 1435 C-105.78418228 1391.60149641 -105.64730662 1348.20336695 -105.61620233 1304.80431686 C-105.61246204 1299.67992814 -105.60806863 1294.55554018 -105.60327148 1289.43115234 C-105.60232744 1288.4109852 -105.6013834 1287.39081805 -105.60041075 1286.33973674 C-105.58357032 1269.82422494 -105.51382919 1253.30933912 -105.42451347 1236.79407842 C-105.33403543 1219.84599053 -105.30046284 1202.89847767 -105.31963962 1185.95015562 C-105.32968061 1175.49279153 -105.29541664 1165.0375043 -105.20434844 1154.58052389 C-105.14613987 1147.40826962 -105.14324273 1140.23731637 -105.18364913 1133.06494518 C-105.20533451 1128.92671051 -105.20281918 1124.79225672 -105.13454247 1120.65444565 C-104.1563422 1105.07122258 -104.1563422 1105.07122258 -108.46500659 1090.73944426 C-111.88359339 1087.30388197 -115.64796801 1085.41482564 -120.15849578 1083.77077556 C-141.77485392 1074.72308491 -158.55279938 1045.29079206 -167.25 1024.6875 C-180.39658781 989.9220789 -180.14356423 952.95455017 -165.65625 918.62109375 C-150.59007612 885.68160509 -124.28008278 860.2075369 -90.70703125 846.37890625 C-54.98510347 833.09140308 -16.72143803 834.1785591 18 850 C50.23992459 865.38120962 75.07686498 893.02641579 87.72265625 926.33984375 C99.78404164 960.90106122 98.78564261 998.74513515 83 1032 C76.87808242 1044.64271365 69.36249817 1055.54545306 60 1066 C59.53480957 1066.52174805 59.06961914 1067.04349609 58.59033203 1067.58105469 C47.73452652 1079.55139485 30.21220747 1094.421859 14 1098 C14.00075944 1098.7662534 14.00151888 1099.5325068 14.00230134 1100.32198 C14.04709422 1145.77447604 14.08139168 1191.22696968 14.10213066 1236.67948338 C14.10463196 1242.14162828 14.10722061 1247.60377314 14.10986328 1253.06591797 C14.11065021 1254.69698411 14.11065021 1254.69698411 14.11145304 1256.36100107 C14.12014669 1273.94885074 14.13591092 1291.53668729 14.15430559 1309.12452918 C14.1730336 1327.18220379 14.18412286 1345.23987153 14.18817699 1363.29755545 C14.19091603 1374.43277729 14.19955532 1385.56796203 14.21583293 1396.70317245 C14.22643564 1404.3474363 14.2295932 1411.99168109 14.22700275 1419.63595176 C14.22572657 1424.04088894 14.22763059 1428.44576145 14.23841095 1432.85068703 C14.24823365 1436.89411563 14.24857725 1440.93743684 14.24179779 1444.98087066 C14.24096146 1446.43336863 14.24342158 1447.88587364 14.24976636 1449.33835799 C14.34794927 1473.23030251 10.55050167 1495.62795432 -6.5 1513.62890625 C-19.22512781 1525.69789466 -35.29781367 1533.27652128 -50.78155518 1541.15127563 C-54.89041636 1543.24114632 -58.99363851 1545.3420449 -63.09765625 1547.44140625 C-63.89089294 1547.84681137 -64.68412964 1548.25221649 -65.50140381 1548.66990662 C-71.06233787 1551.51376797 -76.60590507 1554.3881326 -82.125 1557.3125 C-89.56082351 1561.25211218 -97.02664504 1565.13208962 -104.5 1569 C-112.17967792 1572.97566855 -119.85329473 1576.96124722 -127.5 1581 C-135.14670604 1585.03875319 -142.8203676 1589.02424231 -150.5 1593 C-158.96895907 1597.38455939 -167.42600022 1601.78960152 -175.859375 1606.2421875 C-183.4710503 1610.25728083 -191.10959926 1614.22029267 -198.74707031 1618.18603516 C-204.96662923 1621.41735714 -211.17696128 1624.66510893 -217.375 1627.9375 C-226.23581609 1632.61489944 -235.13289646 1637.22144211 -244.03076172 1641.82788086 C-251.27248837 1645.57920738 -258.49873443 1649.35792621 -265.70996094 1653.16748047 C-273.87581145 1657.47480007 -282.07682958 1661.71443746 -290.28173828 1665.94677734 C-295.74866292 1668.77170537 -301.18507079 1671.630978 -306.56274414 1674.62207031 C-316.53931164 1680.14325303 -326.80762615 1683.07986363 -338 1685 C-337.505 1686.485 -337.505 1686.485 -337 1688 C-346.09261347 1688.58979114 -353.50247907 1687.24431267 -362 1684 C-363.29744141 1683.50886719 -363.29744141 1683.50886719 -364.62109375 1683.0078125 C-379.28030563 1676.58121401 -390.02618176 1662.53973579 -396.20098337 1648.15371127 C-400.83814251 1635.65446969 -400.42165973 1623.1228962 -400.37752342 1609.98680401 C-400.38065525 1607.63323442 -400.38510079 1605.27966628 -400.39073652 1602.92610136 C-400.40119624 1597.13110053 -400.39774833 1591.33622469 -400.38844132 1585.54122467 C-400.3780132 1578.54741395 -400.38518615 1571.55364773 -400.39283381 1564.55983734 C-400.40661749 1551.49049585 -400.40619175 1538.42118942 -400.39799118 1525.35184479 C-400.3897331 1512.11012626 -400.38799986 1498.8684308 -400.39420319 1485.62671089 C-400.39478446 1484.37147485 -400.39478446 1484.37147485 -400.39537748 1483.09088051 C-400.39697732 1479.68253747 -400.39862345 1476.27419445 -400.40032831 1472.86585146 C-400.41619193 1441.12901505 -400.41727431 1409.3921941 -400.40888596 1377.65535545 C-400.40863757 1376.71514977 -400.40838918 1375.77494409 -400.40813327 1374.80624732 C-400.40788448 1373.86453502 -400.40763569 1372.92282272 -400.40737936 1371.95257369 C-400.39981058 1343.26555886 -400.39785528 1314.57855042 -400.4014473 1285.89153481 C-400.40167973 1283.97070161 -400.4019112 1282.04986841 -400.40214171 1280.12903522 C-400.40307311 1272.41001654 -400.40402911 1264.69099788 -400.405021 1256.97197921 C-400.40777208 1235.39368227 -400.40948384 1213.8153853 -400.41037941 1192.2370882 C-400.41044082 1190.76312148 -400.41044082 1190.76312148 -400.41050346 1189.25937764 C-400.41173137 1157.94599224 -400.40835026 1126.63260906 -400.40183067 1095.31922436 C-400.40151455 1093.79570589 -400.40151455 1093.79570589 -400.40119205 1092.24140927 C-400.39775719 1075.74735927 -400.3940988 1059.25330933 -400.39042152 1042.75925939 C-400.37585417 977.34918434 -400.37652713 911.93912771 -400.39111328 846.52905273 C-400.39477686 830.04690395 -400.39841002 813.56475516 -400.40183067 797.08260632 C-400.40204202 796.06773591 -400.40225336 795.05286551 -400.40247111 794.00724146 C-400.40894005 762.72925775 -400.41168241 731.45127557 -400.41037941 700.17329121 C-400.41033866 699.19132748 -400.4102979 698.20936376 -400.41025592 697.19764356 C-400.40931846 675.64149286 -400.40741751 654.08534232 -400.4046479 632.52919179 C-400.40366048 624.81611931 -400.40272124 617.10304682 -400.40179577 609.38997434 C-400.4015636 607.47116318 -400.40132741 605.55235203 -400.40108718 603.63354087 C-400.39750674 574.95631987 -400.4005551 546.27910606 -400.40813327 517.60188595 C-400.40838166 516.66192865 -400.40863004 515.72197135 -400.40888596 514.7535305 C-400.40925803 513.34619564 -400.40925803 513.34619564 -400.40963761 511.91042977 C-400.41791331 480.26196523 -400.41486642 448.61351923 -400.39904372 416.96505734 C-400.39738667 413.56586901 -400.39577656 410.16668066 -400.39420319 406.76749229 C-400.39381257 405.9332765 -400.39342195 405.09906072 -400.39301949 404.23956566 C-400.38710445 391.03529568 -400.39121977 377.83104878 -400.3995102 364.62678088 C-400.40745001 351.64018351 -400.40465314 338.65362503 -400.39046794 325.66703259 C-400.38317043 318.72140637 -400.38051299 311.77585961 -400.39168589 304.83023622 C-400.40138788 298.50931103 -400.39724349 292.18855062 -400.38214391 285.8676374 C-400.37912709 283.59747688 -400.38110847 281.32730267 -400.38876172 279.05715305 C-400.46588929 254.42774362 -397.48743601 231.43112695 -379.5 212.9375 C-367.41698734 201.103078 -352.2074121 193.65665515 -337.51171875 185.59375 C-332.43858168 182.80639182 -327.4120917 179.95920254 -322.4375 177 C-315.51069778 172.88194478 -308.54518605 168.83515108 -301.5625 164.8125 C-299.90142212 163.85537109 -299.90142212 163.85537109 -298.20678711 162.87890625 C-295.93630921 161.57093309 -293.665719 160.26315487 -291.39501953 158.95556641 C-284.85691564 155.18955086 -278.32238766 151.41733505 -271.78735352 147.64599609 C-266.76459723 144.74771095 -261.74129796 141.85038446 -256.71557617 138.95724487 C-254.94954478 137.94052802 -253.18372569 136.92344342 -251.41796875 135.90625 C-249.21265845 134.63599127 -247.00695784 133.36640982 -244.80078125 132.09765625 C-239.13585991 128.83361706 -233.51676466 125.51571108 -227.9609375 122.06860352 C-226 121 -226 121 -224 121 C-224.02094727 120.07477539 -224.04189453 119.14955078 -224.06347656 118.19628906 C-224.88156083 76.51541333 -216.5178623 41.15506837 -187 10 C-185.76830078 8.67162109 -185.76830078 8.67162109 -184.51171875 7.31640625 C-135.85957224 -43.49805788 -52.90724767 -44.57645566 0 0 Z M-137.32275391 61.54589844 C-148.93232913 76.32008451 -154.81514568 93.5890573 -152.6015625 112.3828125 C-149.80419245 129.78463396 -141.02372995 144.9391776 -127.125 155.875 C-121.68628974 159.73517458 -116.24463992 162.67535302 -110 165 C-109.20980469 165.31839844 -108.41960937 165.63679688 -107.60546875 165.96484375 C-92.44360541 171.14614193 -75.04625141 168.78237708 -60.6796875 162.5625 C-45.15471623 154.92847158 -33.78459781 142.38642948 -27.5625 126.25 C-27.00795177 124.51038981 -26.4849483 122.76028194 -26 121 C-25.77699219 120.20464844 -25.55398438 119.40929687 -25.32421875 118.58984375 C-21.50081516 102.59397158 -24.56787258 86.07280881 -32.3046875 71.74609375 C-41.83176504 56.31398427 -56.42958935 45.06876766 -74.10546875 40.625 C-97.5868303 36.85667718 -121.40745466 42.94573697 -137.32275391 61.54589844 Z M-91.3046875 933.65625 C-101.78801268 947.106554 -106.48616358 963.0690225 -105 980 C-101.90752448 998.44374619 -93.75299138 1013.4663171 -79.1875 1025.3125 C-64.49335414 1035.42781833 -47.93380533 1040.35738096 -30.12109375 1037.34375 C-11.20469265 1033.36906199 3.43664397 1023.70250045 14.3203125 1007.73828125 C23.41453438 992.91258464 26.44936991 976.03985636 22.4375 959.0625 C17.60804963 940.70619817 7.15684708 926.91076212 -9 917 C-37.77165384 900.76547745 -70.57449106 909.7638202 -91.3046875 933.65625 Z " fill="#7AB319" transform="translate(786,79)"></path><path d="M0 0 C5.71966184 3.39756653 11.48513336 6.71506036 17.25 10.03515625 C18.91204468 10.99264771 18.91204468 10.99264771 20.60766602 11.96948242 C22.88044115 13.27864403 25.1533097 14.58764347 27.42626953 15.89648438 C30.71130622 17.78934762 33.99466436 19.68508332 37.27734375 21.58203125 C49.07180572 28.3964495 60.88441239 35.17752776 72.71722412 41.92501831 C81.75721708 47.08182233 90.75775321 52.30309394 99.73925781 57.56103516 C107.36155778 62.01681969 115.01781311 66.41162771 122.6875 70.78515625 C133.92597671 77.19395244 145.14310569 83.63849586 156.34375 90.11328125 C160.7758692 92.67484101 165.21394921 95.22567115 169.65625 97.76953125 C176.05644231 101.43705203 182.44113339 105.1302949 188.8125 108.84765625 C189.63556641 109.3257373 190.45863281 109.80381836 191.30664062 110.29638672 C210.18992182 121.34140137 225.71641381 135.57340968 231.8125 157.43359375 C234.05047748 167.35385932 234.96580707 177.17390954 234.94392776 187.32626534 C234.94700672 188.68117232 234.94700672 188.68117232 234.95014787 190.06345117 C234.95578133 193.07609772 234.95436517 196.08869802 234.95294189 199.10134888 C234.95552762 201.28884587 234.95854136 203.47634239 234.9619453 205.66383827 C234.96999401 211.664593 234.97180368 217.66533576 234.97254276 223.66609526 C234.974397 230.14209023 234.98194612 236.61807904 234.98867798 243.09407043 C235.00322046 257.98679322 235.00878552 272.87951471 235.01336992 287.77224331 C235.01570871 295.13669242 235.01931165 302.50114075 235.0230653 309.86558926 C235.0358973 335.09085316 235.04661738 360.31611664 235.0500679 385.54138374 C235.05028953 387.12363159 235.05051132 388.70587944 235.05073325 390.2881273 C235.05095389 391.87411622 235.05117437 393.46010514 235.0513947 395.04609406 C235.05183724 398.22766948 235.05228436 401.4092449 235.05273438 404.59082031 C235.05284377 405.37966077 235.05295316 406.16850124 235.05306586 406.98124596 C235.05669617 432.55705287 235.07261701 458.13283143 235.09592474 483.70862749 C235.12054099 510.76990138 235.13424154 537.83115908 235.13543582 564.89244449 C235.13560727 567.86508298 235.13582269 570.83772147 235.13607025 573.81035995 C235.13612602 574.54226909 235.13618179 575.27417822 235.13623925 576.02826642 C235.13738803 587.78695905 235.14839513 599.54562248 235.16295731 611.30430526 C235.17734953 623.1305233 235.18029214 634.95670088 235.17251733 646.78292532 C235.16861499 653.18485601 235.16952031 659.58668881 235.18357468 665.98860741 C235.19633794 671.85617703 235.19509466 677.72357544 235.18298396 683.5911449 C235.18103121 685.70686528 235.18408578 687.82259789 235.19282833 689.9383011 C235.27798011 711.94942614 233.17111379 732.31654389 216.8125 748.84765625 C202.81638013 760.92649942 186.26728152 766.20418696 167.94970703 765.05908203 C150.72677972 763.35528319 137.00354111 754.67411985 126.0625 741.59765625 C118.12344421 730.86210091 114.4900418 718.98912576 114.55078697 705.79098415 C114.54679091 704.92121735 114.54279485 704.05145055 114.53867769 703.15532717 C114.52773845 700.25074542 114.53089977 697.34635529 114.5340271 694.4417572 C114.52902226 692.33446414 114.52314591 690.227173 114.51647437 688.11988455 C114.50068318 682.33680778 114.49724416 676.55377961 114.49582577 670.77068388 C114.4921302 664.53150591 114.47697392 658.29235455 114.46321106 652.05319214 C114.44093937 641.24591565 114.42585624 630.4386543 114.41584396 619.63136101 C114.40531468 608.29860375 114.39067493 596.96586404 114.37056351 585.63311958 C114.36931464 584.92808773 114.36806577 584.22305587 114.36677906 583.49665942 C114.36041518 579.91605708 114.35397803 576.33545488 114.34751268 572.75485272 C114.30186828 547.40339078 114.2654128 522.05192314 114.234375 496.70043945 C114.20420397 472.07412888 114.16986214 447.44782989 114.12988281 422.8215332 C114.12865181 422.06224248 114.12742081 421.30295176 114.1261525 420.52065222 C114.11378548 412.89543811 114.10133377 405.27022414 114.08882002 397.64501027 C114.06333071 382.11201955 114.03840665 366.57902795 114.01382446 351.04603577 C114.01269355 350.33187751 114.01156264 349.61771926 114.01039747 348.88191985 C113.93496139 301.20384534 113.87274222 253.52575213 113.8125 205.84765625 C112.71963181 205.23422363 111.62676361 204.62079102 110.5007782 203.98876953 C109.04957812 203.17352565 107.5983917 202.35825744 106.1472168 201.54296875 C105.42896477 201.13989502 104.71071274 200.73682129 103.9706955 200.3215332 C98.47865305 197.23508639 93.03599943 194.07418503 87.625 190.84765625 C85.73726425 189.72738405 83.84922729 188.60761932 81.9609375 187.48828125 C80.97061523 186.90111328 79.98029297 186.31394531 78.95996094 185.70898438 C73.23292418 182.3221609 67.49120795 178.96037745 61.75 175.59765625 C60.52783038 174.88167599 59.30566242 174.16569291 58.08349609 173.44970703 C56.22454219 172.36073295 54.36555663 171.27181303 52.50650024 170.18301392 C47.98270869 167.53351447 43.45986598 164.88240066 38.9375 162.23046875 C38.29035538 161.85100098 37.64321075 161.4715332 36.97645569 161.08056641 C31.94484799 158.13016446 31.94484799 158.13016446 29.45309448 156.66882324 C27.73833602 155.66320198 26.02346599 154.65777097 24.30859375 153.65234375 C23.34107178 153.08499512 22.3735498 152.51764648 21.37670898 151.93310547 C18.1167394 150.02380574 14.85313804 148.12074294 11.58973694 146.21731567 C9.96735406 145.2710113 9.96735406 145.2710113 8.31219578 144.30558968 C7.48729617 143.82447165 6.66239656 143.34335361 5.8125 142.84765625 C5.81420874 144.20073902 5.81420874 144.20073902 5.815952 145.58115679 C5.88311381 199.06671819 5.93457363 252.55227512 5.96569599 306.03787026 C5.96944802 312.46266553 5.973331 318.88746072 5.97729492 325.31225586 C5.97808185 326.59129494 5.97886878 327.87033402 5.97967956 329.18813186 C5.99272674 349.88706265 6.01637681 370.5859684 6.04395839 391.28488434 C6.07203171 412.53031835 6.08868034 433.77573926 6.09476548 455.02119106 C6.09887792 468.1264427 6.11185798 481.23162354 6.1362494 494.33685338 C6.15213035 503.32856876 6.15689501 512.32024764 6.15300413 521.31197602 C6.15108627 526.49654002 6.15398715 531.68098046 6.17011642 536.86552238 C6.18479946 541.6201091 6.18539822 546.37449008 6.17519668 551.12908661 C6.1739373 552.84132478 6.17767127 554.55357622 6.18714955 556.26578862 C6.30793295 579.44911395 0.9070811 598.96009509 -15.33984375 616.12109375 C-27.24694061 627.3408163 -42.92063033 634.82709788 -57.004776 642.88127136 C-63.07554537 646.35301373 -69.13157269 649.85011289 -75.1875 653.34765625 C-77.35671667 654.59905223 -79.52598758 655.85035418 -81.6953125 657.1015625 C-86.00351651 659.58696527 -90.31072789 662.07407602 -94.6171875 664.5625 C-103.71542042 669.81807802 -112.81546684 675.06999328 -121.94140625 680.27734375 C-122.58533325 680.64483231 -123.22926025 681.01232086 -123.8927002 681.39094543 C-127.02429255 683.17770537 -130.15677458 684.96288154 -133.29052734 686.74584961 C-134.41023926 687.38401611 -135.52995117 688.02218262 -136.68359375 688.6796875 C-138.17137329 689.52623901 -138.17137329 689.52623901 -139.68920898 690.38989258 C-141.55920228 691.4810418 -143.38606182 692.64669746 -145.1875 693.84765625 C-145.55657637 696.96976423 -145.55657637 696.96976423 -145.375 700.6640625 C-145.34886653 702.07429394 -145.32308234 703.4845319 -145.29760742 704.89477539 C-145.27894623 705.63277374 -145.26028503 706.37077209 -145.24105835 707.13113403 C-144.94679231 719.65278288 -144.91838034 731.66394925 -148.1875 743.84765625 C-148.35910645 744.49863281 -148.53071289 745.14960937 -148.70751953 745.8203125 C-158.40113131 781.78803019 -181.12568147 811.50318713 -213.09863281 830.43310547 C-242.50795965 847.33461017 -280.08920942 853.57862019 -313.1875 844.84765625 C-348.73843825 835.01923029 -380.43135541 813.54464804 -398.875 781.03515625 C-416.46304211 749.00253203 -422.73343665 712.17014112 -413.05078125 676.46484375 C-402.44894459 640.04576856 -379.32834166 610.24805818 -346.1875 591.84765625 C-313.47945761 574.20924793 -275.35352848 571.0710805 -239.76928711 581.50952148 C-230.89545148 584.36082416 -222.58763531 588.67897091 -214.29956055 592.89550781 C-211.34696257 594.25329544 -211.34696257 594.25329544 -208.1875 594.84765625 C-205.41949181 593.72666841 -205.41949181 593.72666841 -202.515625 591.9375 C-201.38866211 591.28442871 -200.26169922 590.63135742 -199.10058594 589.95849609 C-197.87941963 589.23428155 -196.6583945 588.50982891 -195.4375 587.78515625 C-194.1728552 587.04656668 -192.90754696 586.30911201 -191.64160156 585.57275391 C-189.05780855 584.06715931 -186.47828151 582.55463904 -183.90234375 581.03564453 C-180.55687218 579.06303605 -177.20223908 577.10663371 -173.84375 575.15625 C-168.94144571 572.30810709 -164.0464327 569.44774107 -159.15380859 566.58300781 C-156.08996933 564.7905988 -153.02386731 563.00211996 -149.95703125 561.21484375 C-148.92690918 560.61446289 -147.89678711 560.01408203 -146.83544922 559.39550781 C-144.80472083 558.21222851 -142.77380143 557.02927695 -140.74267578 555.84667969 C-136.14137938 553.16507876 -131.54720639 550.47311137 -126.97265625 547.74609375 C-126.17980225 547.27461914 -125.38694824 546.80314453 -124.57006836 546.31738281 C-123.10637387 545.44552932 -121.64480547 544.57009263 -120.18579102 543.69042969 C-115.4093268 540.84765625 -115.4093268 540.84765625 -113.1875 540.84765625 C-113.18901888 539.77133212 -113.19053776 538.69500799 -113.19210267 537.58606797 C-113.25879434 490.13960015 -113.32050324 442.6931293 -113.35687256 395.24662781 C-113.35742479 394.52804667 -113.35797702 393.80946552 -113.35854598 393.06910919 C-113.37051826 377.45152853 -113.38159889 361.83394736 -113.39176132 346.21636542 C-113.39675056 338.55724805 -113.40193679 330.89813083 -113.40722656 323.23901367 C-113.4077496 322.47684892 -113.40827263 321.71468417 -113.40881152 320.92942352 C-113.4258498 296.23584642 -113.45588973 271.54230598 -113.49268888 246.84875108 C-113.53044336 221.4679711 -113.55504737 196.08721141 -113.56315996 170.70640382 C-113.56431254 167.11962446 -113.56561509 163.53284517 -113.56700897 159.9460659 C-113.56741351 158.88719581 -113.56741351 158.88719581 -113.56782622 157.8069344 C-113.5725488 146.45435015 -113.59108943 135.10182872 -113.61482814 123.74927006 C-113.63841111 112.32963341 -113.64704014 100.91007769 -113.64150551 89.49041084 C-113.63894324 83.30558931 -113.64287482 77.12095178 -113.6643219 70.93616295 C-113.68382681 65.27000688 -113.68474417 59.6041581 -113.67109558 53.93798771 C-113.66940938 51.89200332 -113.67444988 49.84599954 -113.68703273 47.80005316 C-113.80765365 26.97016749 -109.28691885 10.15793094 -94.24609375 -5.125 C-64.01752453 -32.91085656 -30.27840267 -18.01760249 0 0 Z M-330.1875 669.84765625 C-342.56621438 684.6339738 -346.60254921 701.97143379 -345.1875 720.84765625 C-343.42341383 735.27165496 -335.60621076 748.95935259 -325.1875 758.84765625 C-324.60226562 759.41742187 -324.01703125 759.9871875 -323.4140625 760.57421875 C-309.73590308 773.09647738 -293.48124071 776.947136 -275.41015625 776.265625 C-259.27895323 775.22668589 -246.49239851 768.11487177 -235.1875 756.84765625 C-234.4759375 756.15929688 -233.764375 755.4709375 -233.03125 754.76171875 C-227.09624267 748.62126886 -223.51347493 741.60826441 -220.1875 733.84765625 C-219.82398438 732.99945312 -219.46046875 732.15125 -219.0859375 731.27734375 C-213.60884763 715.3579517 -216.49627369 696.85515684 -223.5390625 681.99609375 C-232.83821841 665.21605264 -248.08795788 654.34518072 -266.1875 648.84765625 C-290.02366702 642.58596614 -313.89495138 652.55028084 -330.1875 669.84765625 Z " fill="#7AB319" transform="translate(1065.1875,1138.15234375)"></path><style>@media (prefers-color-scheme: light) { :root { filter: none; } }
@media (prefers-color-scheme: dark) { :root { filter: none; } }
</style></svg>